<?xml version="1.0" encoding="UTF-8"?>
<svg width="65px" height="47px" viewBox="0 0 65 47" version="1.1" xmlns="http://www.w3.org/2000/svg" xmlns:xlink="http://www.w3.org/1999/xlink">
    <title>“</title>
    <g id="Results" stroke="none" stroke-width="1" fill="none" fill-rule="evenodd" opacity="0.501656669">
        <g id="Indivudual-Story" transform="translate(-313.000000, -3620.000000)" fill-rule="nonzero" stroke="#FFFFFF" stroke-width="2">
            <g id="Group-4" transform="translate(0.000000, 3506.000000)">
                <g id="Group-3" transform="translate(314.000000, 110.000000)">
                    <path d="M13.2014925,50 C20.9925373,50 26.619403,44.0147783 26.619403,35.8128079 C26.619403,31.1576355 24.6716418,26.9458128 20.7761194,24.2857143 L29,5 L16.2313433,5 L3.89552239,24.0640394 C1.51492537,27.6108374 0,31.3793103 0,35.8128079 C0,44.679803 6.2761194,50 13.2014925,50 Z M46.2014925,50 C53.9925373,50 59.619403,44.0147783 59.619403,35.8128079 C59.619403,31.1576355 57.6716418,26.9458128 53.7761194,24.2857143 L62,5 L49.2313433,5 L36.8955224,24.0640394 C34.5149254,27.6108374 33,31.3793103 33,35.8128079 C33,44.679803 39.2761194,50 46.2014925,50 Z" id="“"></path>
                </g>
            </g>
        </g>
    </g>
</svg>