<?xml version="1.0" encoding="UTF-8"?>
<svg width="68px" height="52px" viewBox="0 0 68 52" version="1.1" xmlns="http://www.w3.org/2000/svg" xmlns:xlink="http://www.w3.org/1999/xlink">
    <title>“</title>
    <g id="About" stroke="none" stroke-width="1" fill="none" fill-rule="evenodd" opacity="0.199701218">
        <g id="team" transform="translate(-155.000000, -4658.000000)" fill="#000000" fill-rule="nonzero">
            <g id="Group-11-Copy" transform="translate(100.000000, 4544.000000)">
                <g id="Group-12-Copy" transform="translate(0.000000, 55.000000)">
                    <path d="M67.705,110.15 C71.665,110.15 75.0475,108.775 77.8525,106.025 C80.6575,103.275 82.06,99.755 82.06,95.465 C82.06,93.155 81.565,91.065 80.575,89.195 C79.585,87.325 78.155,85.84 76.285,84.74 L76.285,84.74 L88,59 L74.8,59 L59.62,84.74 C57.97,87.6 56.7875,89.9375 56.0725,91.7525 C55.3575,93.5675 55,95.41 55,97.28 C55,101.02 56.21,104.1 58.63,106.52 C61.05,108.94 64.075,110.15 67.705,110.15 Z M102.685,110.15 C106.645,110.15 110.0275,108.775 112.8325,106.025 C115.6375,103.275 117.04,99.755 117.04,95.465 C117.04,93.155 116.545,91.065 115.555,89.195 C114.565,87.325 113.135,85.84 111.265,84.74 L111.265,84.74 L122.98,59 L109.78,59 L94.6,84.74 C92.95,87.6 91.7675,89.9375 91.0525,91.7525 C90.3375,93.5675 89.98,95.41 89.98,97.28 C89.98,101.02 91.19,104.1 93.61,106.52 C96.03,108.94 99.055,110.15 102.685,110.15 Z" id="“"></path>
                </g>
            </g>
        </g>
    </g>
</svg>