<?xml version="1.0" encoding="UTF-8" standalone="no"?>
<!DOCTYPE svg PUBLIC "-//W3C//DTD SVG 1.1//EN" "http://www.w3.org/Graphics/SVG/1.1/DTD/svg11.dtd">
<svg width="100%" height="100%" viewBox="0 0 1047 888" version="1.1" xmlns="http://www.w3.org/2000/svg" xmlns:xlink="http://www.w3.org/1999/xlink" xml:space="preserve" xmlns:serif="http://www.serif.com/" style="fill-rule:evenodd;clip-rule:evenodd;">
    <g transform="matrix(1,0,0,1,-18.47,-15.9308)">
        <g id="ca" transform="matrix(1.02783,0,0,1.02783,-15.0766,-12.7851)" fill="#F9F9F9" stroke="#000000" stroke-width="0.97063118">
            <path id="YT" d="M193.3,249.5L178.2,269.8L177.7,272.6L173,280.2L171.1,280.7L177.2,284.9L185.2,292.9L182.4,301.4L175.8,310.8L176.7,312.2L178.6,312.2L180.5,315.5L184.7,316L181.4,326.4L179.5,325.9L174.8,328.3L173.4,329.7L173.9,332.1L170.1,336.8L172.5,340.6L170.6,343.4L172.5,345.8L171.1,346.7L175.8,351.4L175.3,353.3L173.4,360.4L178.1,363.7L175.3,366.5L176.7,373.1L171.5,374.5L172.9,380.6L169.6,383.4L169.6,392.8L168.2,396.1L166.3,398.5L168.2,401.8L172.4,401.8L174.3,417.9L177.6,422.1L173.4,427.8L172.9,434.4L176.7,436.3L181.9,436.8L184.7,440.6L193.7,442.5L195.1,444.9L192.3,445.8L193.2,462.3L151.7,441.1L119.6,421.7L87.6,399L62,378.8L62,374.6L67.2,373.7L61.5,369L57.3,369L55.4,364.3L53.5,364.8L50.2,361L177.2,216C177.2,216 177.5,214.4 177.6,214.6L184,225.7L186.2,228.8L185.7,234.5L187.1,235.4L187.1,241.1L188.5,244.9L193.3,249.5Z"/>
            <path id="NU" d="M401.5,197.6L401.4,198L398.4,212.7L405.3,210.8L408.1,214.6L411.9,214.1L414.3,215.5L420,213.6L423.8,209.4L424.3,207L427.1,200.9L427.1,195.7L423.3,191.5L420,191.5L417.6,193.4L413.8,189.6L412.4,188.7L415.2,186.8L413.8,182.1L414.7,177.4L414.2,173.6L411.8,172.7L408.5,177.9L402.8,181.2L406.6,186.9L407.5,189.7L404.7,189.2L402.8,191.6L409.4,200.1L407,200.6L401.5,197.6ZM417.3,132.8L417.4,132.9L415,142.5L414.7,142.3L417.5,143.7L419.9,141.8L420.8,138.5L417.3,132.8ZM386.2,259.6L374.2,311.4L325,296.6C325,296.7 325.1,296.8 325.1,296.8L325.1,303.4L328.4,310.5L333.1,315.2L343,319.9L342.1,324.1L344.9,334L354.3,337.8L370.4,339.7L381.3,335L388.9,335.5L395.5,330.3L396,327.9L397.4,328.4L397.4,331.7L405.4,336.9L407.3,336L404,339.8L406.8,341.7L414.4,341.7L417.2,344.1L424.8,343.6L429,340.8L429.5,334.7L428.6,332.3L425.8,330.9L422,334.2L420,327L425.2,329.8L426.1,327L429.4,324.6L430.8,322.7L431.3,327.4L436.5,324.6L435.6,328.8L438.9,326L439.4,318L435.6,318.5L431.8,315.2L426.1,308.6L423.7,309.1L419.5,301.1L416.7,294L420,290.2L417.2,283.1L416.3,257.6L408.7,248.6L406.3,250L403.9,245.8L402,246.7L398.7,272.2L400.6,277.9L396.4,282.6L395.9,276L394.5,274.6L395.9,271.3L394.5,266.1L395.4,261.4L394.5,259.5L389.3,249.6L388.4,253.4L388.9,255.3L386.1,258.6L386.2,259.6ZM539.4,357.7L543.6,355.3L544.5,363.3L542.6,364.7L539.4,357.7ZM453,337.4L453.9,330.8L459.1,325.1L467.1,331.7L467.6,334.5L473.7,341.1L473.2,344.9L476.5,345.4L477.9,347.8L468.9,355.4L448.6,346L445.8,342.7L447.7,338.9L451.5,339.8L453,337.4ZM404.4,349.2L407.7,351.6L409.1,350.2L406.7,346.4L404.4,349.2ZM563.5,30L559.3,30.5L556,38.1L553.2,38.1L555.6,34.3L554.7,31L550.9,32.9L543.8,32.4L542.9,34.8L539.6,34.8L537.2,38.6L528.2,37.6L527.7,41.4L530.1,43.8L530.1,44.7L521.6,43.8L517.8,48.5L519.7,51.8L516.4,50.4L515.9,57.5L517.3,59.9L514,61.3L507.4,55.6L507.4,60.3L504.1,62.2L510.2,66.9L505.5,67.4L503.6,66L500.8,66L498.5,71.2L497.1,69.8L489.1,75.9L491.9,79.2L494.7,76.9L496.1,77.4L493.7,81.2L497.9,85L495.6,87.4L496.5,90.2L506.9,87.4L512.1,82.7L508.8,89.3L499.8,91.2L499.8,93.1L507.4,96.9L509.3,92.2L510.2,98.3L519.2,96.9L519.7,94.6L522.1,94.1L523,96.9L532,90.3L533.9,86.5L538.6,87L532.9,96L523.9,101.7L524.4,104.1L530.5,108.3L529.6,110.6L533.4,114.8L530.6,114.3L527.8,110.1L525.9,110.1L520.7,104.4L510.3,104.4L510.3,107.2L511.7,110L512.6,114.2L518.3,118L522.5,126L523,131.2L530.6,132.1L532,130.7L534.4,132.1L529.7,136.8L526.9,134L517.9,134.5L514.1,137.8L513.6,141.1L511.7,143.9L512.2,151.9L514.5,151.9L516.9,149.5L518.8,151.4L520.2,151.4L522.5,150L521.6,154.2L523,158.4L528.7,162.2L531,159.9L531.9,156.6L533.3,159.9L532.8,162.2L529,164.1L522.8,164.6L520.9,161.8L517.6,156.6L511,156.6L511,159.9L512,161.8L512.9,167L515.7,168L516.2,169.4L513.4,172.7L511.5,172.2L506.3,179.3L507.3,185.9L506.8,187.8L512.5,188.3L514.4,189.2L520.1,185L522.9,186.9L531.4,189.7L530.5,186.4L531.4,184L538,182.6L538.9,185.4L542.2,183L541.7,180.2L547.8,180.2L548.3,186.8L549.7,187.7L560.6,176.9L562,171.2L559.2,166L557.3,167.4L557.3,169.8L556.4,170.7L553.1,167.9L554.5,165.5L553.1,163.1L550.3,165L540.8,165.5L539.9,157.5L543.2,161.3L550.3,162.2L556.9,156.5L553.6,148.5L556.9,146.6L558.3,147.5L564,142.3L559.8,139.9L564,138.5L563,134.7L559.2,131.9L563.4,131.9L562.4,126.2L558.6,124.3L557.2,122.4L552.5,123.3L554.4,119.5L562.4,118.6L559.6,115.3L548.3,118.6L554,114.4L556.8,113.9L562.9,107.8L561.5,104L564.8,105.9L568.6,100.2L569.1,94.1L563,97L567.8,90.9L567.3,88.1L569.7,87.2L573.5,72.6L574.4,66.4L576.8,59.3L574.4,57L571.1,58.9L565.4,69.8L562.6,70.3L567.3,60.4L562.6,62.7L561.2,61.8L568.8,58.5L574.9,48.1L574,37.2L572.1,34.4L567.9,35.3L563.5,30ZM481.8,83.3L480.9,85.7L485.1,88L482.3,91.8L480.4,89.9L478,89.9L477.5,94.6L480.8,97.9L481.3,99.8L476.6,100.3L474.7,108.3L476.6,107.8L480.4,113.9L474.7,109.7L474.7,118.2L477.5,121L477,124.8L479.3,129.1L488.7,126.7L482.1,133.3L487.3,143.2L491.1,143.7L488.7,147L495.3,152.2L498.6,151.7L499.5,149.8L503.7,147.5L504.6,150.3L506.5,150.8L507,145.1L508.9,144.2L508.4,141.4L512.2,132.9L518.3,129.6L517.8,122.5L510.7,118.7L508.4,111.6L506,109.2L506,102.6L501.8,101.6L503.7,104L503.7,108.7L502.3,108.7L499,100.7L496.2,100.7L495.3,96.9L487.3,83.7L481.8,83.3ZM461,109.3L459.6,113.5L462.9,118.7L465.7,118.7L465.2,110.7L461,109.3ZM444,123L437.9,125.8L437.9,130L444.5,139.9L444,142.3L440.2,140.4L436.9,142.3L439.3,147L444,146.5L452,149.3L452.9,150.7L453.4,156.4L458.6,160.6L461.9,158.7L460,147.4L460.9,139.8L455.2,136.5L452.8,130.4L449,133.2L448.1,128.5L444,123ZM465.3,138.6L466.7,142.4L465.8,148.5L470.5,153.7L467.2,153.2L469.6,159.4L474.3,158.9L480.9,154.7L478,148L478.9,145.6L476.1,144.7L474.7,142.4L467.1,138.6L465.3,138.6ZM476.1,159.8L472.8,165L483.2,165.9L486,167.3L487.9,161.2L480.8,160.3L479.8,161.2L476.1,159.8ZM498.3,161.3L496.4,164.1L496.9,167.9L500.7,172.1L504.5,172.1L504,166.9L498.3,161.3ZM474.2,175.9L470.4,178.7L469.9,182.5L476.5,191L477.4,189.6L476.5,193.8L485.9,192.4L489.2,191.5L490.2,197.6L494,201.4L494.9,207.6L492.1,214.7L495.9,217.1L495.4,223.7L497.3,223.7L500.6,227.5L503.9,227L509.1,228.9L513.3,222.7L516.1,224.1L514.7,227.9L529.4,227.9L533.6,226.5L536.4,224.2L542.1,224.2L545.4,220L553,223.8L556.3,220L559.1,220L560.5,213.4L562.8,212.5L562.8,209.2L559.5,209.2L559.5,206.8L561.4,202.1L558.6,200.2L555,200.2L555.5,196.9L550.8,196.4L548.4,193.6L537.1,196.9L533.8,202.1L528.6,203.1L526.2,205.4L526.7,209.6L522,204.9L514.9,206.3L514.9,203.5L512,203.5L511.5,207.7L510.1,207.2L510.6,203L507.3,198.8L501.6,198.8L499.7,197.4L503.5,193.6L507.3,192.2L500.7,189.4L500.7,187.1L496.5,183.8L493.2,183.3L490.4,187.1L489,185.7L485.7,180L482.9,180L474.2,175.9ZM470.5,218.9L480.9,227.4L488,226.5L488,213.3L480.9,205.7L476.7,207.6L474.8,212.3L470.5,218.9ZM428.5,206.1L431.8,206.1L432.3,210.8L434.2,214.6L429.5,215.1L426.2,212.7L428.1,209.4L428.5,206.1ZM438.8,205.6L444.5,199L448.3,201.8L445,195.7L445.5,189.1L448.3,188.2L452.5,197.6L455.8,200.4L453.4,194.3L453.4,191L450.1,188.6L456.7,183.9L457.6,188.6L459.5,188.6L461.9,183.9L465.7,188.6L467.6,192.4L467.6,200L466.7,202.4L467.6,207.1L466.7,210.4L465.3,215.6L460.1,219.4L456.8,218L452.6,219.9L449.3,211.9L455.4,206.2L455.9,204.3L438.8,205.6ZM445.4,157.5L447.8,160.8L453,161.3L452.5,159.4L445.4,157.5ZM470,211.8L468.1,208.5L472.8,205.7L475.6,207.6L470,211.8ZM479,200L481.8,203.8L485.1,202.9L481.3,199.1L479,200ZM429.9,157L430.4,163.1L430.9,168.3L434.7,170.7L436.1,169.3L432.8,158L429.9,157ZM431.3,183.4L435.1,181.5L439.3,186.2L438.8,188.6L433.6,188.6L433.6,186.2L431.3,183.4ZM432.7,191L441.2,190.5L441.2,192.9L434.1,194.8L432.7,191ZM436,200.4L439.8,196.2L444,196.7L440.2,200.9L436,200.4ZM453,179.2L447.8,184.4L449.7,186.8L455.4,182.1L453,179.2ZM501.6,178.7L503.5,189.1L505.9,189.1L504.5,182.5L501.6,178.7ZM543.7,293L545.6,290.6L535.2,278.8L531.4,259.9L532.3,251.9L538,242.5L534.2,239.7L525.7,240.6L515.3,253.3L513.9,260.4L511.5,273.6L513.9,293.9L517.2,295.3L526.6,295.8L530.8,299.6L526.1,301L520.9,297.7L517.6,300.1L518.1,306.2L519.5,305.7L526.1,311.8L526.1,314.2L534.1,314.7L535,310L545.4,321.3L551.5,314.7L553.9,317.1L564.8,315.2L570,318.5L574.2,315.2L577,318L579.8,315.6L576.5,311.4L584.5,310.5L586.9,313.3L593.5,310.5L588.8,302.9L585.5,302.9L585.5,300.1L597.3,303.9L601.5,311L607.2,308.6L608.6,311.9L606.7,313.8L611.4,314.3L619.9,319.5L618.5,323.7L614.7,325.6L615.2,331.7L621.8,327L622.7,322.3L632.1,327L636.3,327L636.3,330.8L645.7,335.5L656.1,349.7L654.7,351.1L654.2,364.3L646.6,375.2L649,378L657,381.8L657.5,387L653.7,386.5L652.8,391.2L648.6,391.2L645.8,395.4L638.2,396.8L637.3,395.4L629.3,395.9L627.9,398.3L628.4,400.7L630.8,403.5L624.7,407.3L626.6,413L629,416.3L634.7,420.1L638.9,421L640.8,418.2L647.9,413L646,409.7L648.4,407.8L656.4,410.2L656.9,408.3L660.7,402.2L662.6,409.3L664,406L681.9,416.4L686.1,415.5L689.4,416L689.9,423.6L695.1,426.9L697,425.5L708.8,426.9L710.7,425L713.5,425L715.4,428.3L723.4,431.1L732.8,428.7L745.5,428.7L748.8,429.6L751.2,424.4L747,421.1L739.9,416.9L727.2,412.7L722.5,411.8L711.2,403.8L715,400L722.6,406.1L726.8,405.2L735.3,409.4L743.8,407L749,408.4L751.8,410.3L752.3,407.9L750.9,405.1L750.4,401.3L747.1,398.5L743.3,393.3L749,396.1L749,391.9L742.4,387.7L742.4,384.9L733,382.1L735.8,380.7L733.4,376.5L730.1,378.9L724.9,372.3L723,374.2L716.9,372.8L706.5,363.8L702.3,365.7L701.4,363.8L697.2,360L698.1,356.7L700.9,360L705.1,357.2L703.7,355.3L699.9,354.4L697.1,350.6L701.3,351.1L698.5,346.9L703.2,344.5L708.4,349.2L716.4,352L720.2,347.8L718.3,353.5L723.5,355.4L726.8,359.6L731.5,363.8L736.2,360L740.9,362.4L740.9,357.2L736.7,346.8L739.5,347.3L742.8,341.6L741.4,334L737.2,334L737.2,329.8L741,329.3L741.5,327.9L739.1,324.6L741.9,321.8L731,319L724.9,325.1L724,316.6L718.3,322.7L715.9,321.3L712.6,314.7L706.5,313.3L703.7,316.1L705.1,310.9L703.7,309L696.6,316.6L689,315.7L684.8,309.1L682,310L667.8,310.9L667.8,308.5L672.5,308L674.9,306.1L672.5,299.5L669.7,298.6L676.3,297.2L679.1,293.9L678.2,291.5L668.8,292.9L664.6,293.4L665.1,290.6L671.2,285.4L663.6,278.3L661.2,278.8L661.7,283.5L658.9,284.9L656.5,283L651.8,287.2L650.4,285.8L659.4,276.8L658.5,274.9L649.1,273L646.3,277.2L644.4,278.1L646.3,273.9L640.6,278.6L640.1,271L637.3,270.1L635.9,275.8L634.5,273.4L630.7,276.2L632.6,278.6L635.9,276.2L634,280L630.7,279.1L629.8,273.9L634,270.1L633.5,267.7L626.4,262.5L623.6,265.3L622.2,272.4L614.2,263L608.5,270.1L607.6,269.2L611.8,263.1L609.4,257.4L604.7,258.3L604.2,255L598.5,252.2L596.1,254.1L590.4,250.8L581.4,255.5L581.4,269.2L580,269.2L579.1,261.2L574.4,263.1L574.9,259.8L572.1,261.7L570.7,271.6L568.3,271.6L569.7,262.2L568.8,256.1L566.4,249L564,247.6L561.6,247.1L561.1,243.3L557.3,237.6L546,240.4L543.2,245.1L540.4,248.9L539,256L537.6,260.2L538.1,268.7L542.3,270.6L538.1,278.6L542.3,283.8L547.5,284.7L547.5,294.1L543.7,293ZM643.3,337.4L644.7,340.2L640.9,342.1L635.2,342.6L633.3,339.8L635.2,334.6L638,337.4L643.3,337.4ZM639,437.9L638.5,441.7L635.2,445L631.9,442.2L630,441.3L629.1,438.9L631.5,436.1L639,437.9ZM638.1,431.8L644.2,435.6L647,434.7L647,432.3L638.1,431.8ZM743.8,459.7L742.4,464.4L740.5,467.7L743.8,470.1L747.1,465.9L747.1,460.2L743.8,459.7ZM757.5,429.4L761.3,425.6L764.1,426.5L766.9,431.2L764.1,433.1L757.5,429.4ZM698.1,427.5L704.2,433.2L707.5,432.3L707.5,429.9L698.1,427.5ZM585.2,320.8L590.4,316.6L590.4,314.2L585.7,315.6L583.3,315.6L580.9,318.4L585.2,320.8ZM608.3,323.2L611.6,318.5L609.2,316.1L605.4,319.4L608.3,323.2ZM595.1,332.6L598.9,328.8L598.9,321.2L596.5,320.7L595.1,332.6ZM594.2,319.4L600.8,313.7L596.1,314.6L594.2,319.4ZM615.9,338.8L616.4,354.9L620.2,358.2L625.9,356.8L631.6,357.3L634,350.7L632.6,345.5L628.8,340.8L630.2,336.1L622.2,335.6L615.9,338.8ZM623.9,327L626.3,332.7L629.6,334.6L630.1,333.2L623.9,327ZM588,457.3L591.3,459.7L595.1,456.4L601.2,455L602.1,461.1L596,470.1L596.9,472L592.2,473.9L588.4,473.9L586.5,473.4L582.7,469.2L586.9,462.6L588,457.3ZM619.2,470.5L619.7,463.9L625.8,460.1L628.6,467.7L629.1,477.6L625.8,480L619.2,470.5ZM562.5,399.2L564.9,407.2L568.2,406.3L562.5,399.2ZM568.2,397.3L572.9,404.9L578.6,404.9L579.1,403L575.3,400.2L568.2,397.3ZM555,404.4L559.2,402L565.8,415.2L567.7,414.7L568.2,410L570.1,409.5L574.8,414.2L578.6,414.2L587.1,419.9L593.2,422.3L598.9,431.3L596.1,435.5L597.5,436L599.9,433.2L604.6,433.7L606,430.4L611.2,435.1L610.7,438.4L604.1,445.5L598.4,442.7L594.2,441.8L591.4,438.5L587.6,437.6L583.8,435.2L580.5,439.4L582.4,443.2L578.6,446L577.2,446.9L573.4,454.9L567.3,458.7L564.9,452.6L564.9,448.4L562.5,447.5L550.7,452.7L549.3,449.9L555.9,439.5L557.3,416.4L555.4,414L555,404.4ZM562.5,235.4L570.1,236.3L574.8,234.4L580.9,233.9L592.7,244.3L594.1,247.6L580.9,248.5L576.7,250.9L575.8,255.1L571.1,256L568.7,248L564.5,244.7L562.1,237.6L562.5,235.4ZM425.6,346.8L428.4,350.1L430.8,347.7L428,344.4L425.6,346.8ZM437.4,343L439.8,347.7L442.2,345.3L440.8,342L437.4,343ZM471.9,334.1L475.7,337.4L478.1,334.6L474.3,331.3L471.9,334.1ZM532.8,319.9L538.5,320.4L539,319L536.2,316.6L532.8,319.9ZM417.1,258L409.1,243.8L413.8,240L419.5,240L424.7,246.1L417.1,258ZM433.2,262.8L437,270.4L437.9,272.8L445.9,281.3L449.2,288.4L449.2,291.7L455.8,296.4L458.6,293.6L459.1,288.4L460.5,288.4L461.9,289.8L469.9,284.6L469.4,281.8L468.9,275.7L470.8,271.9L466.1,266.2L466.1,263.8L465.2,260L460,260.9L460,258L465.2,252.8L466.1,248.6L468.5,248.1L465.2,242L454.8,245.8L453.4,245.3L452,240.1L445.4,241.5L445.9,247.2L442.1,248.6L441.6,254.3L446.8,258.1L444.9,266.1L442.5,264.2L437.3,256.2L433.2,262.8ZM481.3,238.2L488.4,236.3L495.5,241.5L504,239.1L506.8,247.1L502.1,255.6L502.1,259.8L496.4,267.8L493.1,267.3L489.3,264.9L487.4,266.8L489.3,271.5L484.6,281.9L479.9,281L479,273.9L475.2,265.9L476.1,248.4L475.2,245.1L480.4,245.6L478.5,242.3L481.3,238.2ZM456.3,242.9L464.8,239.6L463.9,238.2L460.1,238.2L455.4,240.1L456.3,242.9ZM469.1,262.8L466.3,260.4L468.2,256.6L472,259.9L469.1,262.8ZM659.3,613.1L665.9,608.4L667.3,610.8L661.6,614.6L659.3,613.1ZM653.7,650.9L646.1,650.9L640.9,653.3L639,656.6L641.4,658.5L650.8,659L657.9,660.9L660.3,660L653.7,650.9ZM677.3,667.4L681.1,668.3L675,673L674.5,670.6L677.3,667.4ZM664.1,583.8L658.4,589.9L656.5,587.5L652.7,590.8L655.1,584.7L656,579L656.9,581.4L658.8,578.6L658.8,576.2L660.2,575.3L661.1,579.5L664.1,583.8ZM649.9,583.8L653.7,580.5L652.8,583.3L649.9,583.8ZM377,379.4L378.9,375.6L381.3,378.4L382.7,378.4L381.8,373.7L380.4,364.7L378.5,358.6L381.8,355.8L399.3,349.7L398.8,346.4L396.4,345.5L394.5,348.3L386.5,349.7L383.2,348.3L380.4,350.7L376.2,347.9L380,341.8L389.9,341.8L397,338.5L399.4,339L402.7,346.6L401.8,350.8L407,355.5L407.5,356.9L411.7,359.3L413.6,357.4L424.5,367.8L434.9,368.3L437.3,365.5L442,365.5L445.8,367.9L451,368.8L452.4,364.6L460.9,371.7L463.7,370.3L460.9,366.1L459.5,366.1L454.8,364.7L454.3,360.9L452.4,357.1L458.1,356.2L458.1,352.9L462.3,356.7L469.9,360L472.7,360L470.8,361.9L471.3,370.4L469.9,374.6L471.3,377L470.4,380.8L473.2,378.9L476,382.2L477.4,382.2L477.4,374.2L475.5,367.6L477.4,365.2L483.1,363.8L488.3,354.4L490.2,354.9L489.7,345L488.3,345L487.4,348.8L485.5,350.7L482.2,347.9L485,341.3L486.4,337.1L490.2,338.5L488.8,334.7L486,336.6L482.2,331.9L479.8,332.8L469.4,321.9L468.9,315.8L473.6,311.1L469.4,307.8L471.3,305L471.3,299.8L469.9,297.9L473.2,294.6L475.6,297L477.5,293.2L474.2,290.8L478.4,288L478.9,284.7L481.7,284.2L483.6,288.4L485.5,286.5L493.5,296.4L495.4,308.2L500.6,313.4L500.1,315.8L504.3,319.6L501.9,322L498.1,319.6L500.9,322.4L497.6,329L501.8,333.7L504.6,330.9L510.3,331.8L512.2,333.2L508.4,338.4L512.6,345.5L515.4,358.7L518.7,358.2L517.8,351.1L519.2,349.7L517.8,341.2L523,337L525.8,339.8L533.8,350.2L535.7,356.3L532.4,356.3L530,353L530,362.4L539.9,376.6L539.4,379L543.2,376.6L542.3,373.8L546.5,373.8L547,363.9L550.3,359.2L548.4,345L550.3,343.6L552.7,345L554.6,343.6L553.2,342.7L554.1,337.5L548.4,333.3L547,322.4L552.2,321L557.4,322.4L567.8,321.9L568.7,325.7L571.1,328.5L575.3,328.5L579.1,330.4L577.7,333.7L581.5,338.4L577.3,345L573.1,344.5L573.1,346.4L581.6,359.1L587.3,363.3L587.8,374.2L585.4,374.2L580.2,386L574.1,389.8L570.8,387L570.8,390.3L573.6,394.1L571,394L566.3,391.6L564.9,394.4L559.7,393.5L556.9,390.2L547.5,388.8L548,393L553.7,395.4L555.6,397.8L553.2,403L553.7,404.4L545.7,414.3L535.8,413.4L525.4,406.3L516,405.4L516,407.3L523.1,409.7L532.1,417.3L548.6,418.2L545.8,430L543.4,432.8L542.5,439.4L534.5,445.1L528.8,444.2L525.5,445.1L524.1,452.7L518.4,455.1L510.4,451.3L504.7,451.8L494.3,445.7L496.6,448.5L494.3,448.6L505.6,455.2L508.4,453.8L519.7,461.4L518.8,465.6L514.1,470.8L506.5,470.3L505.1,472.2L509.3,476L504.1,477.4L506,479.3L493.3,491.1L496.1,493.5L490.4,498.2L491.3,500.1L486.6,516.6L483.3,519L483.8,522.3L481.3,528.9L457.8,528.4L428.1,527L409,524.8L408.5,524.3L407.9,523.8L416.3,438.2L355.9,415.5L348.3,399.9L333.2,396.1L286.3,327L300.3,297L311.3,309.1L311.3,312.4L322.2,319.5L328.8,319.5L335.4,326.1L337.8,335.1L335.9,339.3L330.7,337.9L329.3,336.5L324.1,340.3L325,343.6L344.4,351.6L356.2,352.5L358.1,353.9L363.8,351.1L371.4,360.5L376.1,369.9L374.2,377L377,379.4Z"/>
            <path id="NT" d="M415.2,141.9L414.7,141.9L411.4,141.4L411.4,140.5L410.5,140L409.1,141.4L406.3,139.5L401.1,137.1L402.5,135.2L409.1,134.7L414.8,131.9L417.2,132.4L417.6,132.9L415.2,141.9ZM407.7,524.3L417.6,437.9L355.7,415.7L347.2,399.6L332.3,394.9L287.4,326.3L300.1,296.7L290.1,285.8L285.9,284.9L284,287.3L280.2,290.1L276.4,289.6L274.5,287.7L277.3,282L276.8,278.2L281.5,272.5L280.1,271.1L273.5,276.8L270.2,279.2L266.9,283.4L264.1,281.5L263.6,273.5L264.5,259.8L263.1,254.6L259.8,255.5L260.7,261.2L254.1,261.7L255,265L250.8,266.4L251.3,263.6L240,261.2L235.8,263.6L233.4,263.6L233.4,261.7L227.3,261.2L217.9,263.6L215,267L212.2,264.2L213.1,261.4L230.1,259L232,259.9L250.4,258.5L247.6,255.2L244.3,254.7L241.5,252.3L234.4,254.7L222.6,251.4L219.8,255.6L214.6,253.2L210.8,255.6L202.8,256.5L200.4,254.6L197.1,257L196.6,253.7L195.2,250.9L193.8,250L193.3,249.5L178.2,269.8L177.7,272.6L173,280.2L171.1,280.7L177.2,284.9L185.2,292.9L182.4,301.4L175.8,310.8L176.7,312.2L178.6,312.2L180.5,315.5L184.7,316L181.4,326.4L179.5,325.9L174.8,328.3L173.4,329.7L173.9,332.1L170.1,336.8L172.5,340.6L170.6,343.4L172.5,345.8L171.1,346.7L175.8,351.4L175.3,353.3L173.4,360.4L178.1,363.7L175.3,366.5L176.7,373.1L171.5,374.5L172.9,380.6L169.6,383.4L169.6,392.8L168.2,396.1L166.3,398.5L168.2,401.8L172.4,401.8L174.3,417.9L177.6,422.1L173.4,427.8L172.9,434.4L176.7,436.3L181.9,436.8L184.7,440.6L193.7,442.5L195.1,444.9L192.3,445.8L193.2,462.3L193.2,462.8L228.6,478.4L262.6,491.6L297.5,502.5L326.8,511L364.1,518.6L395.7,523.3L407.7,524.3ZM387.4,253.8L385.5,251.9L385.5,249.5L388.3,250M386.4,258.5L374.1,311.4L324.1,296.3L324.1,294.9L337.3,294.4L349.1,297.2L358.5,303.3L365.1,302.8L359.9,296.2L352.3,292L353.2,290.1L343.3,290.1L339.1,288.7L332.5,284.5L326.8,282.6L324.4,276.9L328.2,271.7L347.1,271.7L347.6,269.8L338.6,268.9L331,268L328.6,265.2L330.5,263.3L329.1,261.4L326.7,260L325.3,258.1L327.7,255.3L329.6,255.3L333.4,251.5L335.3,252.4L335.8,246.7L345.2,239.6L350.9,238.7L353.3,239.6L365.1,235.4L367.9,245.3L360.3,251.4L365.5,251.9L370.7,245.3L374,247.2L379.7,255.2L379.2,259L375.9,259.9L376.4,261.3L380.2,260.8L386.4,258.5ZM343.5,169.3L343.5,163.6L349.6,160.8L352.9,161.7L353.4,157.9L359.1,157.9L370.4,149.4L374.6,148.9L377.9,152.2L379.3,151.7L380.7,148.9L383.1,148.9L385.5,156.5L383.6,157.9L381.2,157L381.7,160.3L381.7,163.1L380.3,163.1L379.8,168.3L374.1,169.7L370.8,173.5L368,167.8L371.8,162.1L371.3,161.2L362.3,172.1L359,172.1L359,174.5L356.2,175.9L351.5,174.5L352,170.7L349.2,171.2L343.5,169.3ZM290.6,234.4L317.5,208.9L316.1,201.8L318.9,199.4L318.9,195.2L326,196.1L329.8,198L337.4,197.5L338.8,205.5L342.6,209.7L346.4,211.6L352.1,212.1L356.3,215.9L360.5,229.6L356.3,233.8L351.1,233.3L333.6,241.8L329.8,246L323.7,247.9L316.1,260.2L309,259L308.1,257.1L304.8,259.5L296.8,259.5L295.9,256.7L298.3,252L298.8,249.6L290.6,234.4ZM413.3,149L410,150.4L410,159.4L400.6,159.4L396.4,154.7L398.3,151.4L398.8,148.1L403.5,145.7L414.8,146.2L413.3,149ZM392.6,149.4L393.1,146.6L391.7,142.8L394.5,140.9L397.3,147L392.6,149.4ZM357.2,186.7L354.4,181.5L360.5,179.1L368.1,175.3L368.1,176.7L357.2,186.7ZM386.4,169.7L385,166L392.1,167.9L391.2,169.8L386.4,169.7ZM400.6,197.3L401.6,197.6L398.5,212.8L398.1,213.8L384.6,217.9L380.8,217.9L374.7,212.7L375.6,208.5L379.4,208L386,205.2L393.1,207.1L393.1,203.8L379.9,203.8L380.8,200.5L378.4,200L376.5,203.3L368.5,200.5L367.1,198.1L361,191.5L363.4,189.6L371.4,190.5L365.7,186.7L369.9,183.4L374.1,184.8L370.3,181.5L375.5,175.4L376,175.4L377.9,173L385,173.5L387.4,176.8L387.4,179.2L392.6,182.5L392.6,185.3L395,187.7L393.6,189.6L396.4,191.5L396.4,196.7L400.6,197.3ZM217.4,249.5L214.6,244.3L210.4,246.7L208,245.3L204.2,246.7L198,246.7L198.9,248.1L199.8,252.8L201.2,254.2L205,254.2L217.4,249.5Z"/>
            <path id="BC" d="M105.6,674.7L103.6,674L97.9,672.1L99.8,668.8L99.3,663.6L96,661.7L95.1,656L97,655.5L96.5,651.7L91.8,650.8L89.4,642.8L91.8,641.9L91.8,638.1L86.1,631L84.2,631L76.2,625.8L80.4,621.1L72.8,613.1L70,615L65.8,605.1L73.4,598L70.1,597.1L72,590.5L86.2,587.2L86.2,582.5L75.3,583.4L72.9,576.8L75.3,575.4L78.1,572.1L76.7,570.2L77.2,564.1L76.3,557L85.3,549.9L76.3,548.5L73.5,552.7L72.1,552.2L70.7,537.6L72.1,535.2L69.7,529.5L83.4,520.1L83.4,517.3L86.2,514.9L90,505.9L93.8,504L94.7,499.8L91.4,497.4L90.5,492.7L84.8,482.3L82.4,480.9L83.3,477.6L82.4,474.3L85.2,471.5L83.3,469.1L86.6,466.7L88,440.7L88.9,439.3L86.5,424.2L88.4,421.8L86.5,416.6L85.6,412.4L87.5,412.4L87,404.8L78.5,402.4L75.2,403.8L72.8,407.6L70,407.1L68.1,406.2L60.5,405.7L63.3,399.6L61.4,378.4C61.7,378.5 61.9,378.9 61.9,378.9L85.4,398L119.6,421.8L151.7,441.2L192.4,462L193.3,462.9L227.5,478L227.7,478.9L179.1,597.4L179.7,597L182.4,599.7L184.6,601.2L180.5,603.5L185.3,609.2L184.4,610.6L189.2,613L187.4,616.8L192.7,623.4L192.3,631.5L195.7,633.9L195.8,638.9L198.2,640.1L201.6,645.1L201.7,650.5L206.1,651.7L205.7,660L209.1,666.4L211.4,670.3L210.4,674.2L214.6,681.4L218.8,686.2L217.8,695.3L214.9,706.3L218.6,713.5L219.1,719.2L189.4,709.3L161.7,699L126.8,684.8L105.6,674.7ZM56.4,525.3L50.7,523.9L47,530L41.8,528.6L42.3,527.7L47.5,527.2L49.4,524.4L48,521.1L45.6,520.2L45.1,516.9L43.2,515L38.5,521.1L37.1,524.9L34.7,527.3L37.1,529.7L36.2,537.7L42.8,538.2L47,532.5L56.4,525.3ZM46,542.3L43.6,539L35.1,539.5L35.6,540.9L35.6,547L38,563.5L41.3,564L41.3,561.6L39.9,560.7L39.9,553.6L38.5,548.9L40.9,542.8L46,542.3ZM64.4,565.9L63,571.1L66.8,571.1L67.3,566.4L64.4,565.9ZM73.9,557.9L67.8,564.5L68.3,567.8L71.6,573.9L76.3,565.9L73.9,557.9ZM80.9,550.8L75.7,553.2L77.1,550.4L80.9,550.8ZM68.7,554.6L70.1,551.3L68.2,539L66.8,539.9L68.7,554.6ZM63.5,553.6L60.2,545.1L63,542.3L63.9,544.7L65.8,551.3L63.5,553.6ZM65.4,539L68.2,537.1L65.8,534.7L62,534.7L65.4,539ZM88,652.8L88.9,648.6L94.1,656.2L92.7,660L88,652.8ZM54.5,607L57.8,606.5L64.4,612.2L66.8,617.9L83.3,634L83.8,653.8L92.3,663.7L91.4,674.6L88.6,679.8L82,676L74,665.1L75.9,662.3L75.4,659.9L71.2,660.8L67.9,655.6L69.3,653.7L67.9,646.1L64.6,646.1L63.2,642.8L63.7,640.9L65.6,640.9L65.1,633.8L61.3,632.9L59.4,629.1L60.8,628.2L54.2,622.5L57,618.3L61.2,617.8L61.7,615.4L56,615.4L53.2,610.7L54.5,607ZM62.5,634.3L59.2,637.6L63.4,640.4L62.5,634.3ZM72.4,588.1L83.7,586.7L83.2,584.3L72.3,585.7L72.4,588.1Z"/>
            <path id="AB" d="M228.7,478.5L228.5,479.2L227.8,478.9L179.2,597.4L179.8,597L182.5,599.7L184.7,601.2L180.6,603.5L185.4,609.2L184.5,610.6L189.3,613L187.5,616.8L192.8,623.4L192.4,631.5L195.8,633.9L195.9,638.9L198.3,640.1L201.7,645.1L201.8,650.5L206.2,651.7L205.8,660L209.2,666.4L211.5,670.3L210.5,674.2L214.7,681.4L218.9,686.2L217.9,695.3L215,706.3L218.7,713.5L219.2,719.2L239,724.9L273,733.9L322.1,530.4L323.5,524.3L326.6,512L326.8,511.6L326.8,511.1L297.5,502.6L262.6,491.7L228.7,478.5Z"/>
            <path id="SK" d="M273.1,733.5L293.9,738.2L320.8,743.4L346.3,747.6L366.6,750.4L391.6,753.2L398.2,605.9L401.7,575.6L403.9,562.4L403.3,562.2L403.2,562.8L403.3,562.2L407.7,524.2L395.9,523.3L364.3,518.6L327,511L327,511.3L273.1,733.5Z"/>
            <path id="MB" d="M391.6,753.3L398.2,606L401.7,575.7L403.9,562.5L403.3,562.3L403.2,562.9L403.3,562.3L407.7,524.3L407.7,523.4L408.2,524.4L408.3,524.4L422.7,526.2L454.3,528.1L480.7,527.6L480.7,528.4L481.2,542.7L480.2,547.9L483.5,551.7L483.5,554.5L493.9,555L496.2,553.1L500.4,554.5L499,560.2L502.8,564.9L507,584.3L505.6,587.1L512.2,589.5L521.6,583.3L530.1,584.7L536.7,589.4L546,589.8L546.1,589.8L546.4,589.6L546.2,589.8L546.6,589.8L546.2,590.3L498,654L477.2,675.7L476.7,749.5L476.2,749.4L476.2,757.3L465.3,757.3L425.2,755.9L391.8,753.1L391.6,753.3Z"/>
            <path id="ON" d="M763.7,815.5L763.1,815.8L761,816L759,817.6L755.7,820.9L753.3,820.9L752.4,822.3L756.6,824.2L753.3,826.6L746.7,828L746.2,827.1L742,828L725.5,836.5L720.8,842.2L716.1,849.8L718.9,851.7L725.5,850.3L729.3,848.4L731.2,852.2L733.1,854.1L732.2,856.9L728.4,856.9L716.1,862.1L711.9,863.5L711.9,865.4L715.7,866.3L712.4,868.2L696.8,869.1L693.5,873.3L690.2,879.9L688.3,880.4L681.7,885.6L681.2,888.9L672.7,888.9L670.3,883.7L678.8,879.5L678.3,872.4L678.8,864.8L686.4,857.7L683.6,836L687.8,830.8L686.9,824.7L679.8,816.7L685,815.3L690.2,820L693,824.2L697.2,824.2L702.4,827.5L707.1,827L709.5,819.9L702.4,811.9L701.9,810L697.7,807.6L687.8,797.2L684,800.5L677.4,800.5L675.5,798.6L660.9,799.5L650,799.5L645.8,800.9L637.3,796.7L631.2,797.2L632.1,794.4L632.6,789.7L627.4,787.8L629.3,782.1L622.7,775L622.7,769.3L616.6,770.7L609.5,770.7L601,761.3L600.5,758.5L594.8,755.7L581.6,756.6L574,753.3L573.1,754.7L574.5,757.5L569.8,764.6L571.7,758.5L569.8,758L567.4,766L565.5,767.4L563.6,765L560.3,768.3L559.8,771.6L558.4,774.4L557.8,774.4L557.9,774.7L554.6,774.3L552.2,774.8L550.3,773.4L541.3,773.4L539.4,770.6L538,770.6L532.3,775.3L527.6,774.8L521,769.6L516.3,772.4L516.8,771L510.7,764.9L503.6,764L498.9,766.4L496.1,765.9L493.7,764L486.6,763.5L483.8,761.6L481.9,748.9L477.2,749.8L477.2,750L477.2,749.8L477.7,676L498.5,654.3L547.1,589.6L547.3,590L556.5,595.8L562.6,603.8L563.1,605.7L567.8,607.1L573.5,607.1L581.5,610.9L583.9,610.4L594.8,616.5L617.5,614.6L618,614.1L623.7,615.5L627.9,615.5L629.8,613.6L633.1,621.6L631.2,622.5L631.2,630.1L635.4,641L638.2,650L637.7,659L640.5,659L649.9,668.4L655.6,675L657.5,674.5L666,683L673.6,687.7L679.3,686.8L678.8,679.7L679.3,681.6L679.7,683.6L679.7,683.3L699.1,761.3L702.4,769.3L710.4,777.3L719.4,782.5L735,782L742.1,786.7L748.2,785.8L751,791L756.7,792.2L759.4,791.4L762.8,789.5L776,780.1L783.1,780.6L784,784.8L785.9,792.4L785.8,792.4L782.2,793.1L778.3,794.7L773.1,802.7L770.7,805.5L770.2,808.3L767.4,813.5L763.7,815.5ZM655.1,805.7L663.1,805.7L665,803.8L670.2,803.3L672.6,801.9L674.5,803.8L676.9,802.9L677.4,808.6L675,811L663.7,808.2L655.7,808.2L655.1,805.7Z"/>
            <path id="QC" d="M871.3,688.2L872.2,685.8L877.9,681.1L879.8,682L885,682L889.7,674.4L893,668.7L892.5,661.1L888.7,656.9L877.8,656L869.8,657.9L852.3,675.4L836.7,697.1L832.9,705.1L827.7,727.8L825.3,732.5L819.6,737.7L815.8,744.3L813,745.2L805,752.8L797,767L795.1,777.4L791.3,782.1L788,784.5L792.7,779.3L794.1,771.7L794.6,766.5L799.3,758.5L810.6,744.8L820,734.4L822.8,729.2L822.3,723.1L825.1,720.3L828.9,697.2L834.1,683L838.8,673.1L845.4,669.8L845.4,657.5L848.2,649L856.7,641.9L885.5,627.3L886.9,627.3L904.8,618.3L908.1,618.3L915.7,612.2L926.6,605.6L927.1,604.2L927.1,599L929,592.4L930.9,586.3L929.5,584.4L929.5,582.5L931.4,580.6L930.9,576.8L937.5,572.1L937,569.7L938.9,565L944.5,563L937.5,553.7L865.2,598L863.3,594.7L857.2,590.5L856.7,587.7L860.9,583.5L857.6,581.6L855.2,586.3L855.2,589.6L857.6,593.4L859,600L862.3,608.5L859,612.3L854.8,608.5L850.6,610.4L844,605.2L843.5,607.6L837.4,609L834.1,606.6L832.7,609L830.8,606.6L832.2,604.2L829.8,601.4L830.3,599.5L825.1,593.8L822.7,597.1L825.1,600.9L824.2,602.8L816.6,600L814.2,597.2L818,594.8L812.8,587.2L810.9,588.1L801.5,581L802,576.8L797.8,574L802.5,570.7L804.4,566.9L798.7,563.1L795.9,559.3L807.2,563.5L806.7,558.8L801,552.7L809,556L818.4,556.9L825,550.3L827.8,552.7L831.6,549.9L834.9,551.3L839.6,549.4L835.4,545.2L838.2,543.8L835.4,537.7L834.5,533L830.3,533.9L832.2,532L826.1,524.4L827.5,522L822.8,523.4L819,517.3L821.4,517.3L815.3,512.6L817.7,508.4L814.4,505.1L815.8,501.8L813,500.4L813.9,497.1L811.1,492.9L806.9,492L799.3,488.7L798.4,485.9L801.2,482.1L797.4,477.4L801.6,473.2L800.2,471.8L796,474.6L793.2,474.1L786.1,476L790.8,472.2L787.5,468.4L785.6,463.7L784.2,466.1L780.9,464.2L780,460.4L780,457.1L777.2,456.6L778.1,454.7L779.8,452.6L774.3,450.5L774.8,464.7L776.2,468.5L778.1,485L774.3,485L775.2,492.1L767.6,502.5L762.4,498.3L759.6,497.8L753,494L745,500.1L742.6,503.9L741.2,503.4L738.8,499.2L741.6,500.1L742.5,498.7L741.6,496.8L744.4,494L740.6,489.3L738.7,490.7L737.3,488.3L737.3,486.4L733.5,478.4L732.6,478.4L732.1,476.5L733,476L728.8,470.3L726.4,465.1L727.3,463.7L728.7,460.9L725.4,458.1L724,459.5L726.4,462.3L722.2,462.3L721.3,459.9L717.1,460.8L717.1,463.2L704.8,462.7L702.4,458L702.9,455.6L702,454.2L700.6,455.1L691.6,451.3L688.8,448L677.5,444.7L668.5,455.1L665.7,453.2L662.9,454.6L643.5,454.1L638.8,460.2L640.2,465.9L646.8,474.4L648.2,482.9L646.3,488.6L647.7,491.4L649.6,490L654.3,500.4L659.5,507.5L657.1,510.3L656.6,519.3L654.7,525.9L650.9,528.3L653.7,533.5L657.5,537.3L662.7,538.7L672.6,544.8L682.5,555.2L686.7,566.1L688.1,580.7L685.7,589.2L675.8,606.7L671.1,610L666.9,615.2L659.3,616.6L660.2,619L663.5,619.9L666.8,624.6L670.1,627L672.5,629.4L672,632.2L674.8,640.7L679,646.4L681.4,651.1L683.8,658.7L686.2,659.2L688.1,664.4L685.3,670.1L684.8,674.3L688.6,678.1L688.6,681.4L686.2,682.8L684.8,679L680.6,676.6L678.2,679.4L679.7,686.5L679.6,683.5L699,761.5L702.3,769.5L710.3,777.5L719.3,782.7L734.9,782.2L742,786.9L748.1,786L750.9,791.2L756.6,792.4L759.3,791.6L762.7,789.7L775.9,780.3L783,780.8L783.9,785L785.7,792.3L786.3,791.8L828.3,776.6L827.8,770L831.1,770L833,767.2L834.9,769.1L835.4,764.9L838.2,764.4L835.4,762L838.7,755.9L837.8,754L838.7,752.6L838.2,749.3L835.4,745.1L836.8,740.9L835.4,735.2L839.2,715.4L842,715.4L842.5,718.2L843.5,716.5L843.8,717.1L847.2,714L849.1,709.3L846.3,704.1L849.1,699.9L855.7,697.1L857.6,698.5L859.5,698L866.1,691.9L871.3,688.2ZM877.9,640L893.5,634.3L898.2,635.2L902,633.3L909.6,634.2L917.2,634.7L920,636.6L919.5,639.9L910.1,641.3L904,644.1L892.2,644.6L887.5,641.3L877.9,640ZM937.4,660.8L932.7,667.4L933.6,673.5L935.5,674L937.9,672.6L935.5,669.8L935,667L937.8,663.2L937.4,660.8Z"/>
            <path id="NB" d="M843.9,718L846.1,715L847.2,713.7L849.1,709L846.3,703.8L849.1,699.6L855.7,696.8L857.6,698.2L859.5,697.7L866.1,691.6L871.3,688.3L871.4,688.4L872.2,687.3L872.3,687.3L881.7,686.8L884.1,690.1L886.9,689.6L889.3,684.9L894.5,682.1L895.9,685.4L896.8,692L896.8,694.4L894.9,698.2L896.8,698.7L897.7,697.3L901,697.8L903.4,703L905.8,702.5L911.9,708.6L914.7,707.7L925.1,707.7L924.6,711L920.8,712.9L920,717L916.7,718.9L915.3,724.6L913.4,727L911.5,728.9L907.7,735L904.9,739.2L901.6,739.7L900.7,743.5L893.6,747.3L891.2,747.3L888.8,749.7L884.6,749.2L881.8,746.4L880.4,742.2L874.7,741.7L871.9,736.5L863.9,719L862.5,717.1L856.8,713.3L853,713.8L846.4,718.5L843.9,718Z"/>
            <path id="NS" d="M924.4,711L925.4,709.9L925.6,709.4L928.9,710.3L931.7,709.8L935.9,710.7L936.4,708.3L939.2,706.9L944.9,707.4L950.6,699.8L952.5,699.8L954.4,701.7L957.7,698.9L961.9,701.7L962.4,703.1L969,702.2L969,703.1L965.2,705.9L961,710.1L951.1,724.7L946.9,729.4L942.7,732.7L943.6,735.5L939.8,738.8L936.5,737.4L933.7,740.7L935.6,743.5L936.5,744.9L930.8,761.4L928,764.2L928,767L922.8,770.3L922.3,767.5L918.5,765.6L916.1,767L909.5,760.4L910.9,754.7L907.6,753.8L916.6,738.7L917.5,735.4L924.1,726.4L925,726.4L925.9,729.7L927.3,729.7L928.7,726.9L932.5,722.7L935.3,721.3L935.3,720.4L932,719.9L925.4,723.7L918.8,728.4L917.4,728.9L921.2,717.1L920.7,716.8L919.8,717.1L919.8,717L920.7,712.8L924.4,711ZM954,692L954.9,672.2L956.3,670.3L955.4,667.5L956.8,665.6L962,670.3L963.4,672.7L962.9,680.7L967.1,677.9L968.5,678.8L975.1,676.4L974.2,677.3L977.5,681.5L973.7,683.4L974.6,690L961.4,698L954,692Z"/>
            <path id="PE" d="M911,692L910.1,698.1L909.2,700L917.7,704.2L921.5,704.2L931.9,703.7L933.3,706.5L934.7,706.5L935.2,703.7L942.8,702.8L944.2,700.4L941.4,695.7L941.4,693.8L943.8,690.5L943.3,687.7L938.1,691.5L935.7,692.9L934.8,690.5L932.4,691.4L931.5,694.2L927.7,695.1L927.2,696.5L921.5,697L920,699L918.1,697.6L916.2,697.1L911,692Z"/>
            <path id="NL" d="M944.9,562.8L937.9,553.6L865.2,598L863.3,594.7L857.2,590.5L856.7,587.7L860.9,583.5L857.6,581.6L855.2,586.3L855.2,589.6L857.6,593.4L859,600L862.3,608.5L859,612.3L854.8,608.5L850.6,610.4L844,605.2L843.5,607.6L837.4,609L834.1,606.6L832.7,609L830.8,606.6L832.2,604.2L829.8,601.4L830.3,599.5L825.1,593.8L822.7,597.1L825.1,600.9L824.2,602.8L816.6,600L814.2,597.2L818,594.8L812.8,587.2L810.9,588.1L801.5,581L802,576.8L797.8,574L802.5,570.7L804.4,566.9L798.7,563.1L795.9,559.3L807.2,563.5L806.7,558.8L801,552.7L809,556L818.4,556.9L825,550.3L827.8,552.7L831.6,549.9L834.9,551.3L839.6,549.4L835.4,545.2L838.2,543.8L835.4,537.7L834.5,533L830.3,533.9L832.2,532L826.1,524.4L827.5,522L822.8,523.4L819,517.3L821.4,517.3L815.3,512.6L817.7,508.4L814.4,505.1L815.8,501.8L813,500.4L813.9,497.1L811.1,492.9L806.9,492L799.3,488.7L798.4,485.9L801.2,482.1L797.4,477.4L801.6,473.2L800.2,471.8L796,474.6L793.2,474.1L786.1,476L790.8,472.2L787.5,468.4L785.6,463.7L784.2,466.1L780.9,464.2L780,460.4L780,457.1L777.2,456.6L778.1,454.7L780,452.3L780.8,453.3L781.2,453.7L785.4,459.4L793,462.7L794.9,464.1L797.7,464.6L803.8,469.3L806.2,468.8L808.1,473.5L806.2,477.3L813.3,474.5L814.2,476.9L819.4,478.8L819.9,482.1C820.6,482.1 824.9,482 825.4,481.2L827.9,484.9L825.5,488.2L831.6,489.6L832.5,491.5L837.2,491L838.6,492.4L837.7,499.5L839.6,505.6L844.3,509.4L847.1,507.5L850.4,508.9L850.4,511.7L852.8,509.8L857,511.7L864.1,509.3L867.9,514L867,518.2L872.2,517.3L875.5,513.1L879.3,515L882.1,512.2L890.6,515L894.4,513.6L894.4,509.8L896.3,508.4L898.7,510.8L904.8,510.3L905.3,514.5L896.8,525.8L896.8,529.6L889.7,540.9L890.2,553.2L896.3,540.9L898.2,540L898.2,533.9L903.9,526.3L902.5,524.4L911,517.8L916.7,522.5L917.6,527.2L920,528.6L920,523.4L923.3,520.1L929.4,520.6L937,523.4L944.6,534.3L947.9,533.4L949.8,537.2L952.2,541L951.3,549.5L948.5,560.4L944.9,562.8ZM962.5,548.4L958.7,548.4L958.2,550.3L956.3,550.3L952.5,562.6L952,575.3L952.9,581.9L957.6,599.8L956.7,606.4L960.5,610.6L962.4,611.5L959.6,612.9L959.6,620.9L960.5,624.2L956.7,624.2L953.9,628L956.7,629.4L960,627L960.5,626.1L962.9,624.2L964.3,626.1L962.9,627L962.9,635L960.1,640.7L963.4,643.1L962.9,645.5L966.2,645.5L969.5,644.1L975.2,638L979.4,634.7L981.8,634.2L987,630.4L990.3,630.9L994.5,628.5L996.4,624.7L1001.6,619.5L1003,617.1L1004.4,615.7L1006.3,617.1L1006.8,620.9L1012,618.5L1011.1,614.7L1014.9,610.9L1018.2,612.8L1015.8,616.1L1014.9,623.7L1012.1,629.8L1014.5,632.2L1021.6,626.1L1022.1,624.2L1021.2,615.7L1024.5,611.9L1022.1,602L1023.5,601.1L1025.9,601.1L1030.1,605.8L1033.4,611.9L1032.9,614.7L1035.7,617.5L1037.6,616.6L1038.5,608.6L1040.4,607.7L1040.4,611.5L1045.6,616.2L1046.5,612.9L1048.9,610.5L1048.9,608.1L1046.5,601.5L1045.1,591.6L1039.4,589.7L1038.5,595.8L1036.6,598.6L1034.2,596.7L1034.7,591L1033.8,588.6L1034.7,585.8L1032.8,584.4L1030.4,586.8L1030.4,599.1L1031.8,601L1030.9,600.5L1026.2,597.7L1027.1,595.3L1025.7,593.4L1021.5,593.4L1021,592.9L1024.8,588.2L1024.8,586.8L1026.2,585.4L1025.3,577.4L1023.4,576.9L1023.4,579.3L1021,582.1L1021.5,585.4L1017.3,587.3L1017.8,584L1015.9,582.1L1012.1,582.6L1010.7,581.2L1012.1,573.6L1010.7,572.2L1006.9,571.7L997,576.4L997,578.8L992.8,584.9L989.5,581.1L988.6,583.5L985.3,585.9L977.7,584L979.6,580.7L981,577.4L980.1,575L977.7,576.9L973.9,578.3L973,577.8L970.2,578.3L971.6,583L969.7,585.8L971.1,591.5L966.9,585.4L966,570.8L961.8,565.6L963.7,564.7L965.1,566.1L964.2,558.1L963,556L960.2,559.3L959.3,556.9L963.1,552.7L962.5,548.4Z"/>
        </g>
    </g>
</svg>
