<?xml version="1.0" standalone="no"?>
<!DOCTYPE svg PUBLIC "-//W3C//DTD SVG 20010904//EN"
 "http://www.w3.org/TR/2001/REC-SVG-20010904/DTD/svg10.dtd">
<svg version="1.0" xmlns="http://www.w3.org/2000/svg"
 width="488.000000pt" height="488.000000pt" viewBox="0 0 488.000000 488.000000"
 preserveAspectRatio="xMidYMid meet">
<metadata>
Created by potrace 1.14, written by Peter Selinger 2001-2017
</metadata>
<g transform="translate(0.000000,488.000000) scale(0.100000,-0.100000)"
fill="#000000" stroke="none">
<path d="M2380 4837 c-30 -19 -120 -71 -200 -117 -80 -46 -173 -100 -208 -121
-35 -22 -65 -39 -68 -39 -4 0 -335 -191 -414 -239 -19 -12 -47 -27 -62 -33
-16 -7 -28 -16 -28 -20 0 -4 -4 -8 -9 -8 -7 0 -142 -77 -756 -432 -104 -60
-193 -113 -197 -117 -8 -7 116 -82 327 -200 22 -13 44 -26 48 -31 5 -4 61 23
125 59 65 37 177 102 250 144 72 43 192 111 265 153 72 43 212 124 310 180 98
57 183 104 188 104 5 0 9 5 9 10 0 6 4 10 9 10 5 0 64 32 132 71 68 40 138 80
155 89 16 10 67 39 111 65 l81 47 104 -60 c56 -33 120 -69 141 -81 65 -37 98
-56 282 -163 221 -128 568 -329 615 -356 19 -11 133 -76 253 -146 120 -69 220
-126 223 -126 4 0 128 71 283 162 25 15 61 35 79 44 17 10 32 20 32 24 0 3
-28 21 -62 40 -35 19 -71 39 -80 45 -10 5 -113 65 -229 133 -116 67 -215 122
-220 122 -5 0 -9 4 -9 9 0 5 -8 11 -17 14 -10 4 -43 21 -74 39 -30 18 -104 61
-165 96 -132 77 -122 71 -214 124 -41 24 -88 51 -105 61 -69 39 -501 289 -515
298 -83 51 -314 179 -323 179 -7 0 -37 -15 -67 -33z"/>
<path d="M319 3487 c0 -29 0 -2220 0 -2273 l1 -40 156 -90 c86 -49 175 -100
198 -113 22 -13 109 -63 191 -111 83 -48 170 -98 195 -112 25 -14 110 -63 190
-110 80 -46 222 -128 315 -182 94 -54 177 -102 185 -107 89 -53 344 -199 347
-199 2 0 39 -22 83 -50 44 -27 80 -46 80 -43 0 3 8 -1 17 -9 10 -9 27 -20 38
-26 21 -10 21 -9 20 220 l0 231 -32 17 c-18 10 -38 22 -45 27 -7 6 -38 24 -68
40 -30 17 -237 136 -460 265 -223 129 -425 246 -450 260 -25 14 -117 67 -205
118 -88 51 -204 118 -257 148 -56 32 -98 62 -99 71 0 9 -1 432 -1 939 -1 821
-3 925 -17 930 -8 3 -42 22 -76 42 -33 21 -115 69 -182 108 -113 66 -123 70
-124 49z"/>
<path d="M4507 3475 c-32 -19 -62 -35 -67 -35 -4 0 -10 -3 -12 -8 -1 -4 -57
-38 -123 -76 -66 -38 -122 -70 -124 -72 -2 -2 -5 -425 -5 -941 l-1 -937 -70
-41 c-38 -23 -216 -126 -395 -229 -179 -103 -332 -191 -340 -196 -24 -14 -286
-166 -545 -314 -132 -76 -246 -144 -253 -150 -7 -7 -13 -21 -13 -32 0 -10 1
-62 2 -114 0 -52 0 -99 -1 -105 -1 -5 -1 -14 0 -20 1 -5 2 -49 1 -98 0 -48 4
-87 9 -87 5 0 62 31 126 70 65 38 119 70 121 70 1 0 111 63 244 140 133 77
245 140 250 140 5 0 9 5 9 10 0 6 4 10 9 10 5 0 49 23 98 51 48 29 107 62 131
76 23 13 93 53 154 89 61 35 115 64 119 64 5 0 9 5 9 10 0 6 5 10 11 10 6 0
37 15 68 34 31 19 72 43 91 53 19 11 101 59 183 106 81 48 152 87 157 87 6 0
10 3 10 8 0 4 17 15 38 25 20 10 69 37 107 60 l70 42 2 1168 c2 642 0 1167 -5
1167 -4 0 -33 -16 -65 -35z"/>
<path d="M1133 2857 c-7 -12 -7 -1027 1 -1034 3 -3 60 -7 126 -7 100 -1 120 1
121 14 0 8 1 151 1 318 1 284 2 302 18 285 9 -10 48 -54 86 -98 38 -44 71 -82
74 -85 6 -6 119 -136 151 -174 13 -15 33 -38 44 -50 11 -13 49 -56 85 -97 110
-125 90 -114 215 -112 61 1 112 2 115 2 3 1 5 235 5 521 l0 520 -30 1 c-16 0
-73 1 -125 1 l-95 1 0 -311 c0 -172 -3 -312 -6 -312 -3 0 -32 30 -65 67 -32
36 -64 71 -69 77 -6 6 -35 40 -65 75 -30 36 -62 72 -70 81 -16 18 -41 46 -140
160 -36 41 -83 95 -106 119 l-41 43 -112 2 c-62 0 -115 -3 -118 -7z"/>
<path d="M2633 2849 c-120 -30 -192 -79 -232 -156 -27 -50 -32 -73 -32 -143 0
-95 43 -166 136 -226 68 -43 127 -59 336 -93 97 -16 190 -36 207 -45 73 -38
42 -106 -57 -127 -72 -15 -184 -15 -241 0 -58 15 -143 57 -166 82 -9 10 -23
19 -29 19 -7 0 -62 -28 -123 -63 l-111 -63 20 -30 c20 -33 91 -94 108 -94 6 0
11 -4 11 -9 0 -5 8 -11 18 -14 9 -3 42 -15 72 -26 30 -12 71 -24 90 -27 19 -3
53 -9 74 -14 61 -13 264 -9 341 7 163 34 281 129 303 245 10 54 5 151 -11 188
-41 95 -172 172 -332 195 -22 3 -53 7 -70 10 -16 3 -48 7 -70 10 -193 26 -245
45 -245 91 0 50 70 74 203 70 109 -4 166 -19 227 -59 l45 -30 45 25 c145 79
170 94 170 103 0 15 -78 88 -120 113 -45 26 -139 58 -210 71 -90 16 -277 11
-357 -10z"/>
<path d="M3529 2862 l-35 -3 0 -522 1 -521 128 -1 c71 -1 131 3 134 8 6 11 7
1026 0 1033 -6 6 -174 10 -228 6z"/>
</g>
</svg>
